<svg xmlns="http://www.w3.org/2000/svg" xmlns:xlink="http://www.w3.org/1999/xlink" viewBox="0 0 154.5 136.02794319743472" height="136.02794319743472" width="154.5" data-background-color="#ffffff" preserveAspectRatio="xMidYMid meet" id="tight-bounds"><g><svg viewBox="0 0 154.5 136.02794319743472" height="136.02794319743472" width="154.5"><g><svg viewBox="0 0 154.5 136.02794319743472" height="136.02794319743472" width="154.5"><g id="textblocktransform"><svg viewBox="0 0 154.5 136.02794319743472" height="136.02794319743472" width="154.5" id="textblock"><g><svg viewBox="0 0 154.5 136.02794319743472" height="136.02794319743472" width="154.5"><g transform="matrix(1,0,0,1,0,0)"><svg width="154.5" viewBox="1.6800000667572021 -38.279998779296875 53.29999923706055 46.91999816894531" height="136.02794319743472" data-palette-color="#d7dbde"><path d="M8.18-19.92L8.18-18.7Q6.3-18.7 4.96-17.41 3.61-16.11 3.59-14.18L3.59-14.18Q3.61-12.26 4.93-10.94 6.25-9.62 8.18-9.59L8.18-9.59 8.2-9.62Q10.16-9.62 11.79-10.96 13.43-12.3 13.43-14.55 13.43-16.8 11.91-19.63L11.91-19.63 11.06-21.14Q8.42-25.66 8.42-29.42L8.42-29.42Q8.45-33.2 11.28-35.74 14.11-38.28 18.55-38.28L18.55-38.28Q22.8-38.28 25.2-35.67 27.59-33.06 27.61-29.39L27.61-29.39 26.39-29.39Q26.39-32.52 24.33-34.79 22.27-37.06 18.42-37.06 14.58-37.06 12.11-34.88 9.64-32.69 9.64-29.5 9.64-26.32 11.23-23.39L11.23-23.39 13.04-20.14Q14.65-17.21 14.65-14.18L14.65-14.18Q14.65-11.96 12.74-10.21L12.74-10.21Q12.16-9.67 11.47-9.28L11.47-9.28Q14.11-8.59 17.24-6.35L17.24-6.35 18.95-5.08Q24.17-1.12 27.29-1.12L27.29-1.12 27.32-1.12Q30.44-1.12 32.57-3.49L32.57-3.49Q34.72-5.86 34.72-8.91 34.72-11.96 32.75-13.82 30.79-15.67 27.66-15.7L27.66-15.7 27.66-16.92Q27.71-16.92 27.73-16.92L27.73-16.92Q31.4-16.94 33.64-14.75L33.64-14.75Q35.94-12.55 35.94-9.01 35.94-5.47 33.42-2.71 30.91 0.05 27.44 0.07L27.44 0.07Q27.42 0.07 27.37 0.07L27.37 0.07Q23.93 0.07 20.31-2.54L20.31-2.54 16.11-5.66Q12.38-8.37 9.01-8.37L9.01-8.37Q8.98-8.37 8.96-8.37 8.94-8.37 8.89-8.37L8.89-8.37Q4.35-8.37 3.22-5.32L3.22-5.32Q2.91-4.44 2.91-3.61L2.91-3.61Q2.91-2.1 3.78-1.17 4.66-0.24 5.86-0.22L5.86-0.22 5.86 1Q4.15 1 2.92-0.23 1.68-1.46 1.68-3.61L1.68-3.61Q1.68-6.37 3.71-8.06L3.71-8.06Q4.44-8.64 5.47-9.03L5.47-9.03Q4.08-9.77 3.22-11.13 2.37-12.5 2.37-13.94L2.37-13.94Q2.37-16.58 4.05-18.25 5.74-19.92 8.18-19.92L8.18-19.92ZM39.16-2.81L39.16-2.81Q36.74-2.81 36.25 0L36.25 0 35.01 0Q35.54-4.03 39.16-4.03L39.16-4.03Q40.4-4.03 41.89-3.47L41.89-3.47 41.89-22.12Q41.89-23.41 41.23-24.84 40.57-26.27 40.28-27.05L40.28-27.05Q39.96-27.78 39.96-28.52L39.96-28.52Q39.96-29.88 40.48-30.71 40.99-31.54 42.28-32.71L42.28-32.71 43.11-31.79Q41.55-30.42 41.28-29.44L41.28-29.44Q41.18-29.08 41.18-28.54L41.18-28.54Q41.18-27.71 41.84-26.27L41.84-26.27 42.4-25.07Q42.7-24.46 42.89-23.78L42.89-23.78 50.34-29.96 52.05-27.98Q54.98-24.56 54.98-21.09L54.98-21.09 54.98-9.91Q54.98-5.47 52.15-3.2L52.15-3.2 47.29 0.73 46.04-0.1Q44.92-0.83 43.11-1.71L43.11-1.71 43.11 8.64 41.89 8.64 41.89-2.22Q40.35-2.81 39.16-2.81ZM43.11-22.39L43.11-3Q44.85-2.25 45.75-1.68L45.75-1.68 47.24-0.78 51.36-4.13Q53.76-6.08 53.76-9.91L53.76-9.91 53.76-21.09Q53.76-23.05 52.98-24.44 52.19-25.83 51.56-26.64L51.56-26.64 50.19-28.25 43.11-22.39Z" opacity="1" transform="matrix(1,0,0,1,0,0)" fill="#d7dbde" class="wordmark-text-0" data-fill-palette-color="primary" id="text-0"/></svg></g></svg></g></svg></g></svg></g></svg></g><defs/></svg>