<svg xmlns="http://www.w3.org/2000/svg" xmlns:xlink="http://www.w3.org/1999/xlink" width="1366" height="44" viewBox="0 0 1366 44">
  <defs>
    <clipPath id="clip-SE_-_P_-_Desktop">
      <rect width="1366" height="44"/>
    </clipPath>
  </defs>
  <g id="SE_-_P_-_Desktop" data-name="SE - P - Desktop" clip-path="url(#clip-SE_-_P_-_Desktop)">
    <rect width="1366" height="44" fill="#f8f8f8"/>
    <g id="Group_3329" data-name="Group 3329" transform="translate(648)">
      <g id="Group_3327" data-name="Group 3327">
        <rect id="Rectangle_17591" data-name="Rectangle 17591" width="44.357" height="27.643" transform="translate(12.821 8.179)" fill="#fff"/>
        <path id="Path_4722" data-name="Path 4722" d="M56.857,8.5v27H13.143V8.5H56.857m.643-.643h-45V36.143h45V7.857Z"/>
      </g>
      <g id="Group_3328" data-name="Group 3328">
        <rect id="Rectangle_17535" data-name="Rectangle 17535" width="8.37" height="13.654" transform="translate(30.815 15.173)" fill="#ff5f00"/>
        <path id="Path_3528" data-name="Path 3528" d="M31.683,22a8.657,8.657,0,0,1,3.33-6.827,8.68,8.68,0,1,0,0,13.648A8.577,8.577,0,0,1,31.683,22Z" fill="#eb001b"/>
        <path id="Path_3530" data-name="Path 3530" d="M49.046,22a8.675,8.675,0,0,1-14.04,6.827,8.7,8.7,0,0,0,1.473-12.182,8.41,8.41,0,0,0-1.473-1.472A8.673,8.673,0,0,1,49.046,22Z" fill="#f79e1b"/>
      </g>
    </g>
    <g id="Group_3314" data-name="Group 3314" transform="translate(546)">
      <g id="Group_3313" data-name="Group 3313">
        <rect id="Rectangle_17585" data-name="Rectangle 17585" width="44.357" height="27.643" transform="translate(12.821 8.179)" fill="#fff"/>
        <path id="Path_4693" data-name="Path 4693" d="M56.857,8.5v27H13.143V8.5H56.857m.643-.643h-45V36.143h45V7.857Z"/>
      </g>
      <path id="Path_4021" data-name="Path 4021" d="M30.391,16.729,25.807,27.664H22.818l-2.257-8.73a1.182,1.182,0,0,0-.668-.965,12.271,12.271,0,0,0-2.79-.932l.064-.321h4.815a1.3,1.3,0,0,1,1.3,1.112l1.189,6.338,2.944-7.45h2.97v.013Zm4.043,0-2.34,10.935H29.266l2.34-10.935ZM42.11,24.1c.006-2.887-3.986-3.047-3.966-4.34.006-.4.385-.81,1.195-.912a5.268,5.268,0,0,1,2.79.488l.5-2.321a7.469,7.469,0,0,0-2.649-.482c-2.8,0-4.77,1.492-4.783,3.62-.019,1.575,1.408,2.449,2.482,2.976,1.1.54,1.472.874,1.472,1.356-.007.733-.874,1.055-1.7,1.074a6,6,0,0,1-2.906-.688l-.521,2.4a8.771,8.771,0,0,0,3.15.585c2.977-.006,4.918-1.472,4.931-3.754Zm7.38,3.568h2.623L49.831,16.729H47.42a1.284,1.284,0,0,0-1.209.8L41.969,27.67h2.97l.585-1.633h3.632Zm-3.15-3.87,1.491-4.1.855,4.1Z" fill="#1a1f71"/>
    </g>
    <g id="Group_3324" data-name="Group 3324" transform="translate(699 -0.133)">
      <g id="Group_3321" data-name="Group 3321">
        <rect id="Rectangle_17589" data-name="Rectangle 17589" width="44.357" height="27.643" transform="translate(12.821 8.169)" fill="#fff"/>
        <path id="Path_4705" data-name="Path 4705" d="M56.857,8.49v27H13.143v-27H56.857m.643-.643h-45V36.133h45V7.847Z"/>
      </g>
      <g id="Group_3322" data-name="Group 3322">
        <path id="Path_4706" data-name="Path 4706" d="M22.181,23.822H19.546a.42.42,0,0,0-.38.309l-1.054,6.75a.223.223,0,0,0,.174.257h1.285a.419.419,0,0,0,.38-.309L20.234,29a.367.367,0,0,1,.379-.309h.829a2.693,2.693,0,0,0,3-2.514A2.006,2.006,0,0,0,24.1,24.5,2.5,2.5,0,0,0,22.181,23.822Zm.283,2.494c-.141.939-.855.939-1.575.939H20.51l.283-1.768a.21.21,0,0,1,.225-.167h.167c.489,0,.913,0,1.151.257A.8.8,0,0,1,22.464,26.316Zm7.58-.051h-1.26a.238.238,0,0,0-.225.167l-.058.341-.084-.116a1.779,1.779,0,0,0-1.485-.521,2.893,2.893,0,0,0-2.809,2.546,2.461,2.461,0,0,0,.463,1.948,1.942,1.942,0,0,0,1.6.63,2.425,2.425,0,0,0,1.743-.714l-.058.341a.227.227,0,0,0,.167.257h1.176a.419.419,0,0,0,.38-.308l.687-4.32a.226.226,0,0,0-.167-.257A.5.5,0,0,1,30.044,26.265Zm-1.768,2.456a1.41,1.41,0,0,1-1.434,1.208,1.063,1.063,0,0,1-.855-.34,1.049,1.049,0,0,1-.2-.888,1.4,1.4,0,0,1,1.4-1.208.977.977,0,0,1,.83.341A.907.907,0,0,1,28.276,28.721Zm8.492-2.456h-1.26a.39.39,0,0,0-.309.167L33.457,29l-.746-2.488a.4.4,0,0,0-.34-.257h-1.26a.219.219,0,0,0-.225.225v.057l1.4,4.095L30.969,32.5a.223.223,0,0,0,.058.308.182.182,0,0,0,.116.026H32.4a.445.445,0,0,0,.308-.141L36.922,26.6a.223.223,0,0,0-.058-.308.469.469,0,0,0-.1-.026Z" fill="#253b80"/>
        <path id="Path_4707" data-name="Path 4707" d="M40.979,23.822H38.343a.417.417,0,0,0-.379.309l-1.055,6.75a.228.228,0,0,0,.167.257h1.37a.271.271,0,0,0,.257-.225l.308-1.922a.369.369,0,0,1,.38-.309h.829a2.694,2.694,0,0,0,3-2.513,2,2,0,0,0-.341-1.685A2.464,2.464,0,0,0,40.979,23.822Zm.282,2.494c-.141.939-.855.939-1.575.939h-.405l.283-1.768a.21.21,0,0,1,.225-.167h.167c.489,0,.913,0,1.151.257C41.294,25.744,41.319,25.969,41.261,26.316Zm7.593-.051h-1.26a.238.238,0,0,0-.225.167l-.058.341-.084-.116a1.779,1.779,0,0,0-1.485-.521,2.893,2.893,0,0,0-2.809,2.546A2.461,2.461,0,0,0,43.4,30.63a1.942,1.942,0,0,0,1.6.63,2.425,2.425,0,0,0,1.743-.714l-.058.341a.227.227,0,0,0,.167.257h1.176a.419.419,0,0,0,.38-.308l.687-4.32a.226.226,0,0,0-.167-.257A.591.591,0,0,1,48.854,26.265Zm-1.781,2.456a1.41,1.41,0,0,1-1.434,1.208A.98.98,0,0,1,44.585,28.7a1.4,1.4,0,0,1,1.4-1.208.976.976,0,0,1,.83.341A.907.907,0,0,1,47.073,28.721Zm3.266-4.693-1.08,6.866a.226.226,0,0,0,.167.257h1.1a.419.419,0,0,0,.38-.309l1.054-6.75a.227.227,0,0,0-.167-.257h-1.26A.193.193,0,0,0,50.339,24.028Z" fill="#179bd7"/>
      </g>
      <g id="Group_3323" data-name="Group 3323">
        <path id="Path_4708" data-name="Path 4708" d="M33.078,21.617l.2-1.176H30.892l1.344-8.756c0-.058.058-.084.115-.084h3.318a2.9,2.9,0,0,1,2.262.688,1.492,1.492,0,0,1,.38.688,2.536,2.536,0,0,1,0,.939v.263l.2.116a2.022,2.022,0,0,1,.379.283,1.268,1.268,0,0,1,.309.688,2.438,2.438,0,0,1-.058,1,3.932,3.932,0,0,1-.4,1.151,2.175,2.175,0,0,1-.662.713,3.185,3.185,0,0,1-.887.405,4.264,4.264,0,0,1-1.08.116h-.257a.786.786,0,0,0-.778.688v.084l-.309,2.089-.026.083c0,.026,0,.026-.025.058h-.032C34.679,21.617,33.078,21.617,33.078,21.617Z" fill="#253b80"/>
        <path id="Path_4709" data-name="Path 4709" d="M38.69,13.98c0,.058-.026.141-.026.2-.43,2.263-1.948,3.035-3.863,3.035H33.83a.469.469,0,0,0-.463.4l-.521,3.175-.141.913a.253.253,0,0,0,.2.283h1.768a.4.4,0,0,0,.4-.341l.026-.083.308-2.09.026-.115a.4.4,0,0,1,.4-.341H36.1a3.059,3.059,0,0,0,3.382-2.668,2.263,2.263,0,0,0-.341-2.006A.984.984,0,0,0,38.69,13.98Z" fill="#179bd7"/>
        <path id="Path_4710" data-name="Path 4710" d="M38.227,13.787A2.4,2.4,0,0,0,37.8,13.7a4.236,4.236,0,0,0-.855-.058h-2.6a.4.4,0,0,0-.405.34l-.546,3.523-.026.116a.466.466,0,0,1,.463-.405H34.8c1.922,0,3.439-.771,3.863-3.034,0-.058.026-.142.026-.2a1.294,1.294,0,0,0-.379-.141C38.285,13.813,38.259,13.813,38.227,13.787Z" fill="#222d65"/>
        <path id="Path_4711" data-name="Path 4711" d="M33.907,13.98a.4.4,0,0,1,.4-.341h2.61a6.819,6.819,0,0,1,.855.058,3.346,3.346,0,0,1,.521.116c.141.058.257.083.379.141a2.091,2.091,0,0,0-.463-1.922,3.287,3.287,0,0,0-2.545-.8H32.364a.47.47,0,0,0-.463.4l-1.4,8.82a.263.263,0,0,0,.225.308h2.121l.521-3.285C33.374,17.5,33.907,13.98,33.907,13.98Z" fill="#253b80"/>
      </g>
    </g>
    <g id="Group_3392" data-name="Group 3392" transform="translate(750)">
      <g id="Group_3335" data-name="Group 3335">
        <rect id="Rectangle_17594" data-name="Rectangle 17594" width="44.357" height="27.643" transform="translate(12.821 8.179)" fill="#ffb3c7"/>
        <path id="Path_4732" data-name="Path 4732" d="M56.857,8.5v27H13.143V8.5H56.857m.643-.643h-45V36.143h45V7.857Z"/>
      </g>
      <path id="Path_4733" data-name="Path 4733" d="M53.366,24.109a1.1,1.1,0,0,0-1.1,1.118h0a1.108,1.108,0,0,0,1.1,1.119h0a1.119,1.119,0,0,0,0-2.237Zm-3.645-.862a1.6,1.6,0,1,0-1.6,1.53,1.562,1.562,0,0,0,1.6-1.53Zm.007-2.983H51.5v5.953H49.728v-.379a3.1,3.1,0,0,1-1.749.546,3.144,3.144,0,0,1,0-6.287,3.028,3.028,0,0,1,1.749.547Zm-14.143.778v-.778H33.779v5.953h1.812V23.434c0-.939,1.01-1.44,1.7-1.44h.019v-1.73A2.227,2.227,0,0,0,35.585,21.042Zm-4.506,2.2a1.6,1.6,0,1,0-1.6,1.53,1.563,1.563,0,0,0,1.6-1.53Zm.006-2.983h1.768v5.953H31.085v-.379a3.094,3.094,0,0,1-1.749.546,3.144,3.144,0,0,1,0-6.287,3.028,3.028,0,0,1,1.749.547Zm10.633-.154a2.129,2.129,0,0,0-1.819.829v-.668H38.137v5.953h1.781V23.093a1.25,1.25,0,0,1,1.324-1.35c.778,0,1.222.469,1.222,1.337v3.144h1.761V22.437a2.327,2.327,0,0,0-2.507-2.327ZM23.647,26.224H25.5V17.616H23.647Zm-8.126,0h1.961V17.609H15.521Zm6.853-8.608A6.862,6.862,0,0,1,20.369,22.5l2.706,3.723H20.658L17.72,22.18l.759-.572a4.975,4.975,0,0,0,1.98-3.992Z" fill="#0a0b09"/>
    </g>
    <g id="Group_3298" data-name="Group 3298" transform="translate(597)">
      <g id="Group_3297" data-name="Group 3297">
        <rect id="Rectangle_17583" data-name="Rectangle 17583" width="44.357" height="27.643" transform="translate(12.821 8.179)" fill="#fff"/>
        <path id="Path_4683" data-name="Path 4683" d="M56.857,8.5v27H13.143V8.5H56.857m.643-.643h-45V36.143h45V7.857Z"/>
      </g>
      <path id="Path_4020" data-name="Path 4020" d="M30.783,14.4,26.2,25.336H23.21l-2.263-8.723a1.181,1.181,0,0,0-.668-.964,12.306,12.306,0,0,0-2.79-.933l.064-.321h4.815a1.3,1.3,0,0,1,1.3,1.112l1.2,6.339L27.806,14.4h2.977Zm4.05,0-2.34,10.935H29.664L32,14.4ZM42.5,21.775c.007-2.886-3.986-3.047-3.966-4.339.006-.4.385-.81,1.195-.913a5.266,5.266,0,0,1,2.79.488l.5-2.32a7.447,7.447,0,0,0-2.649-.482c-2.8,0-4.77,1.491-4.783,3.619C35.572,19.4,37,20.277,38.073,20.8c1.106.54,1.472.875,1.472,1.357-.006.733-.874,1.054-1.7,1.073a5.982,5.982,0,0,1-2.906-.688l-.521,2.4a8.771,8.771,0,0,0,3.15.585c2.983-.013,4.925-1.485,4.931-3.754ZM49.9,25.349h2.623L50.236,14.408H47.825a1.284,1.284,0,0,0-1.209.8L42.374,25.349h2.97l.585-1.633h3.632ZM46.739,21.46l1.491-4.1.855,4.1Zm-8.287,6.885H37.3v1.074h1.28v.321H36.9V26.776h1.6V27.1H37.289v.932h1.15Zm.733-1.736h.386V29.74h-.386Zm1.369,2.135a.665.665,0,0,0,.611.732h.116a1.255,1.255,0,0,0,.591-.115l.077.276a1.8,1.8,0,0,1-.713.142,1,1,0,0,1-1.048-.933V28.7a1.032,1.032,0,0,1,.913-1.138c.025,0,.058-.006.083-.006a.9.9,0,0,1,.887.906.566.566,0,0,1-.006.1c0,.057,0,.122-.006.18Zm1.132-.277a.559.559,0,0,0-.47-.623.2.2,0,0,1-.064-.007.626.626,0,0,0-.591.624h1.131v.006Zm2.488,1.2a1.536,1.536,0,0,1-.611.122,1.023,1.023,0,0,1-1.067-.964v-.135a1.082,1.082,0,0,1,1.035-1.138h.115a1.3,1.3,0,0,1,.54.116l-.083.289a1.079,1.079,0,0,0-.45-.1.735.735,0,0,0-.752.726v.084a.724.724,0,0,0,.662.791h.077a1.189,1.189,0,0,0,.469-.1ZM45.26,27.1v.508h.559V27.9H45.26v1.151c0,.263.077.418.289.418a.662.662,0,0,0,.225-.02l.02.29a1.07,1.07,0,0,1-.341.057.573.573,0,0,1-.418-.16.822.822,0,0,1-.148-.56V27.914h-.328v-.289h.328v-.4Zm1.093,1.183c0-.257,0-.47-.019-.669h.34l.02.424H46.7a.625.625,0,0,1,.591-.469.505.505,0,0,1,.1.007v.366a.965.965,0,0,0-.135-.006.529.529,0,0,0-.52.488,1.548,1.548,0,0,0-.007.18v1.132h-.386Zm3.439.373a1.049,1.049,0,0,1-.951,1.131h-.1a1.024,1.024,0,0,1-1.029-1.009v-.1a1.058,1.058,0,0,1,.952-1.131h.115a1.011,1.011,0,0,1,1.029.99.437.437,0,0,0-.013.116Zm-1.684.032c0,.469.263.823.643.823s.649-.348.649-.83c0-.36-.18-.81-.643-.81s-.649.418-.649.817Zm2.282-.5a5.26,5.26,0,0,0-.019-.572h.34l.02.347h.006a.783.783,0,0,1,.707-.4c.29,0,.752.18.752.906V29.74h-.385V28.512c0-.341-.135-.63-.489-.63a.559.559,0,0,0-.521.4.588.588,0,0,0-.025.18V29.74H50.39Z" fill="#1a1f71"/>
    </g>
  </g>
</svg>
